# xmcd
#
# Track frame offsets: 
#        150
#        16485
#        32280
#        50832
#        66172
#        85410
#        107685
#        123417
#        134360
#        152485
#        172992
#        183350
#        197825
#
# Disc length: 2778 seconds
#
# Revision: 4
# Processed by: cddbd v1.5.2PL0 Copyright (c) Steve Scherf et al.
# Submitted via: ExactAudioCopy v1.0b3
#
DISCID=aa0ad80d
DTITLE=Friend 'n Fellow - Purple Rose
DYEAR=1999
DGENRE=Jazz
TTITLE0=Fly Like An Eagle
TTITLE1=Forbidden Wine
TTITLE2=Snow Is Gleamin' Red
TTITLE3=Wind Call Me
TTITLE4=Colours
TTITLE5=Friend Of Mine
TTITLE6=Forever Young
TTITLE7=Don't Run Away
TTITLE8=Father's Home
TTITLE9=Blind Man
TTITLE10=Babble
TTITLE11=Return To Love
TTITLE12=Godlike Grace
EXTD=YEAR: 1998
EXTT0=
EXTT1=
EXTT2=
EXTT3=
EXTT4=
EXTT5=
EXTT6=
EXTT7=
EXTT8=
EXTT9=
EXTT10=
EXTT11=
EXTT12=
PLAYORDER=
